<?xml version="1.0" encoding="utf-8"?>
<!-- Generator: Adobe Illustrator 25.3.1, SVG Export Plug-In . SVG Version: 6.00 Build 0)  -->
<svg version="1.1" id="Capa_1" xmlns="http://www.w3.org/2000/svg" xmlns:xlink="http://www.w3.org/1999/xlink" x="0px" y="0px"
	 viewBox="0 0 770.62 286.97" style="enable-background:new 0 0 770.62 286.97;" xml:space="preserve">
<style type="text/css">
	.st0{fill-rule:evenodd;clip-rule:evenodd;fill:#95C11F;}
	.st1{fill-rule:evenodd;clip-rule:evenodd;fill:#F49712;}
	.st2{fill-rule:evenodd;clip-rule:evenodd;fill:#FDC600;}
	.st3{fill-rule:evenodd;clip-rule:evenodd;fill:#008BCB;}
	.st4{fill-rule:evenodd;clip-rule:evenodd;fill:#FFFFFF;}
	.st5{fill:#008BCB;}
</style>
<g>
	<g>
		<path class="st0" d="M770.62,0c-0.2,11.55-7.66,96.42-156.68,116.64C453.9,134.17,449.79,219.52,449.79,219.52h53.23
			c6.84-37.85,40.52-77.83,118.4-90.2c130.71-20.87,148.56-96.88,149.2-114.08V0z"/>
		<path class="st1" d="M556.24,219.52h54c-1.09-28.24,23.07-52.89,65.29-72.2c81.05-37.16,95.09-98.48,95.09-98.48V32.71
			c0,0-9.7,75.75-121.7,106.2C580.73,156.9,559.38,186.04,556.24,219.52z"/>
		<path class="st2" d="M770.62,32.71c0,0-9.7,75.75-121.7,106.2c-68.19,18-89.53,47.14-92.68,80.62h-53.22
			c6.84-37.85,40.52-77.83,118.4-90.2c130.71-20.87,148.56-96.88,149.2-114.08V32.71z"/>
		<path class="st3" d="M770.62,0H12.22C5.5,0,0,5.5,0,12.2v195.11c0,6.71,5.53,12.21,12.22,12.21h437.64
			c0,0,4.1-85.35,164.14-102.88C763.01,96.42,770.42,11.55,770.62,0z"/>
		<g>
			<path class="st4" d="M36.2,114.46l25.51-2.48c1.54,8.56,4.65,14.85,9.31,18.84c4.73,4.03,11.07,6.02,19.04,6.02
				c8.45,0,14.78-1.74,19.04-5.3c4.32-3.59,6.46-7.79,6.46-12.59c0-3.06-0.92-5.67-2.73-7.79c-1.78-2.18-4.9-4.07-9.41-5.67
				c-3.06-1.05-10.05-2.96-20.97-5.66c-14.07-3.49-23.93-7.77-29.58-12.85C44.88,79.85,40.9,71.16,40.9,60.88
				c0-6.62,1.86-12.8,5.58-18.52c3.76-5.77,9.18-10.18,16.21-13.19c7.09-3.01,15.6-4.52,25.59-4.52c16.29,0,28.55,3.57,36.76,10.71
				c8.24,7.17,12.58,16.69,13,28.6l-26.19,1.17c-1.15-6.68-3.54-11.46-7.28-14.36c-3.65-2.95-9.18-4.42-16.54-4.42
				c-7.63,0-13.59,1.56-17.91,4.68c-2.77,2.03-4.14,4.7-4.14,8.07c0,3.07,1.29,5.7,3.88,7.88c3.32,2.77,11.34,5.66,24.09,8.69
				c12.77,2.99,22.17,6.13,28.28,9.38c6.12,3.19,10.89,7.58,14.36,13.2c3.46,5.54,5.21,12.42,5.21,20.63
				c0,7.45-2.07,14.42-6.2,20.89c-4.16,6.49-10.01,11.33-17.54,14.53c-7.55,3.14-16.97,4.69-28.26,4.69
				c-16.41,0-29.03-3.77-37.82-11.33C43.17,140.04,37.92,128.97,36.2,114.46z"/>
			<path class="st4" d="M176.33,91.34l-22.53-4.07c2.53-9.09,6.87-15.83,13.09-20.18c6.19-4.37,15.41-6.57,27.64-6.57
				c11.1,0,19.36,1.33,24.8,3.99c5.42,2.6,9.23,5.93,11.45,10.01c2.24,4.01,3.33,11.43,3.33,22.22l-0.26,29.07
				c0,8.27,0.38,14.36,1.16,18.32c0.81,3.91,2.33,8.1,4.51,12.59h-24.6c-0.68-1.66-1.47-4.13-2.42-7.37
				c-0.4-1.47-0.68-2.44-0.87-2.9c-4.24,4.13-8.79,7.21-13.64,9.3c-4.85,2.06-10.01,3.09-15.51,3.09c-9.66,0-17.33-2.65-22.93-7.89
				c-5.54-5.25-8.34-11.88-8.34-19.91c0-5.33,1.27-10.04,3.82-14.18c2.55-4.2,6.09-7.38,10.62-9.57c4.62-2.26,11.21-4.2,19.85-5.85
				c11.62-2.2,19.69-4.22,24.18-6.11v-2.48c0-4.77-1.17-8.17-3.54-10.18c-2.35-2.07-6.83-3.09-13.37-3.09
				c-4.45,0-7.88,0.87-10.37,2.65C179.91,83.92,177.9,86.98,176.33,91.34z M209.66,111.55c-3.18,1.06-8.24,2.32-15.14,3.81
				c-6.92,1.47-11.45,2.9-13.55,4.32c-3.27,2.32-4.87,5.24-4.87,8.77c0,3.49,1.3,6.52,3.87,9.03c2.61,2.55,5.91,3.81,9.93,3.81
				c4.49,0,8.77-1.46,12.85-4.44c3.02-2.23,4.99-4.98,5.94-8.23c0.64-2.11,0.94-6.17,0.96-12.14V111.55z"/>
			<path class="st4" d="M240.97,62.63h26.46l22.49,66.8l21.96-66.8h25.79l-33.2,90.51l-5.93,16.4c-2.19,5.5-4.27,9.66-6.3,12.59
				c-1.95,2.86-4.24,5.21-6.81,6.98c-2.54,1.83-5.7,3.25-9.5,4.26c-3.71,0.99-7.92,1.5-12.64,1.5c-4.8,0-9.49-0.51-14.08-1.5
				L247,173.9c3.88,0.75,7.38,1.15,10.51,1.15c5.79,0,10.08-1.75,12.86-5.16c2.73-3.37,4.9-7.65,6.35-12.93L240.97,62.63z"/>
			<path class="st4" d="M402.19,126.76l24.81,4.16c-3.18,9.1-8.25,16.04-15.16,20.81c-6.85,4.74-15.42,7.09-25.75,7.09
				c-16.39,0-28.49-5.34-36.35-16.02c-6.18-8.57-9.28-19.37-9.28-32.42c0-15.61,4.08-27.79,12.23-36.58
				c8.14-8.85,18.42-13.29,30.89-13.29c14.01,0,25.04,4.63,33.14,13.92c8.07,9.2,11.95,23.35,11.61,42.42h-62.36
				c0.18,7.38,2.19,13.12,6.02,17.26c3.82,4.07,8.61,6.13,14.32,6.13c3.89,0,7.19-1.07,9.86-3.21
				C398.83,134.91,400.85,131.49,402.19,126.76z M403.62,101.61c-0.18-7.21-2.07-12.67-5.58-16.4c-3.56-3.77-7.86-5.64-12.94-5.64
				c-5.43,0-9.92,1.98-13.43,5.93c-3.55,3.96-5.32,9.32-5.27,16.12H403.62z"/>
			<path class="st4" d="M466.53,156.71h-24.9V62.63h23.14v13.38c3.95-6.31,7.48-10.48,10.61-12.49c3.2-2.01,6.78-3.01,10.8-3.01
				c5.7,0,11.17,1.56,16.4,4.7l-7.71,21.69c-4.18-2.72-8.07-4.07-11.69-4.07c-3.45,0-6.43,0.96-8.85,2.93
				c-2.43,1.88-4.34,5.34-5.76,10.37c-1.36,5-2.03,15.51-2.03,31.53V156.71z"/>
		</g>
	</g>
	<g>
		<g>
			<path class="st3" d="M770.62,192.57c0,4.95-1.24,9.58-3.72,13.84c-2.5,4.24-5.89,7.63-10.22,10.08
				c-4.29,2.49-8.91,3.68-13.89,3.68c-4.95,0-9.61-1.19-13.87-3.68c-4.32-2.45-7.72-5.84-10.2-10.08
				c-2.49-4.26-3.72-8.89-3.72-13.84c0-4.91,1.24-9.53,3.72-13.79c2.48-4.26,5.88-7.66,10.2-10.1c4.27-2.48,8.92-3.71,13.87-3.71
				c4.99,0,9.6,1.23,13.89,3.71c4.33,2.44,7.72,5.84,10.22,10.1C769.38,183.05,770.62,187.67,770.62,192.57z M765.25,192.57
				c0-6.13-2.19-11.39-6.6-15.74c-4.36-4.33-9.66-6.52-15.86-6.52c-6.2,0-11.49,2.18-15.86,6.52c-4.4,4.35-6.57,9.61-6.57,15.74
				c0,6.16,2.16,11.39,6.57,15.75c4.37,4.35,9.66,6.53,15.86,6.53c6.2,0,11.49-2.18,15.86-6.53
				C763.06,203.96,765.25,198.73,765.25,192.57z M730.22,177.81h13.29c3.76,0,6.48,0.76,8.18,2.25c1.68,1.52,2.51,3.53,2.51,6.08
				c0,1.96-0.64,3.69-1.92,5.13c-1.27,1.44-3.33,2.5-6.09,3.17c1.14,0.42,1.96,0.88,2.51,1.36c0.75,0.7,1.52,1.68,2.35,3.01
				c0.05,0.1,1.68,2.93,4.79,8.56h-8.68c-2.87-5.62-4.77-9.01-5.74-10.09c-0.99-1.1-1.93-1.65-2.93-1.65
				c-0.22,0-0.52,0.04-0.93,0.11v11.63h-7.35V177.81z M737.57,190.34h3.24c2.12,0,3.62-0.34,4.5-1.06c0.89-0.67,1.32-1.57,1.32-2.64
				c0-1.11-0.42-2-1.29-2.68c-0.82-0.7-2.24-1.03-4.25-1.03h-3.51V190.34z"/>
		</g>
		<g>
			<path class="st5" d="M329.97,275.05v-40.2h8.18v33.36h20.35v6.84H329.97z"/>
			<path class="st5" d="M370.32,254.66l-7.06-1.28c0.8-2.84,2.16-4.94,4.09-6.29c1.94-1.38,4.81-2.06,8.63-2.06
				c3.46,0,6.05,0.42,7.75,1.23c1.69,0.83,2.88,1.86,3.57,3.13c0.7,1.25,1.05,3.57,1.05,6.94l-0.09,9.07c0,2.58,0.13,4.48,0.37,5.71
				c0.25,1.22,0.71,2.53,1.4,3.93h-7.69c-0.2-0.52-0.45-1.28-0.75-2.29c-0.13-0.45-0.22-0.77-0.27-0.92
				c-1.33,1.3-2.75,2.26-4.26,2.9c-1.51,0.65-3.12,0.97-4.83,0.97c-3.02,0-5.41-0.82-7.15-2.46c-1.74-1.64-2.61-3.71-2.61-6.22
				c0-1.67,0.4-3.14,1.19-4.45c0.79-1.29,1.9-2.29,3.33-2.98c1.42-0.7,3.48-1.3,6.18-1.81c3.62-0.68,6.14-1.32,7.53-1.9v-0.77
				c0-1.51-0.36-2.57-1.1-3.21c-0.74-0.63-2.12-0.95-4.18-0.95c-1.37,0-2.45,0.27-3.22,0.82
				C371.41,252.34,370.78,253.29,370.32,254.66z M380.69,260.96c-0.99,0.34-2.56,0.73-4.72,1.18c-2.15,0.46-3.57,0.93-4.23,1.36
				c-1.01,0.72-1.51,1.62-1.51,2.74c0,1.08,0.4,2.02,1.21,2.82c0.81,0.79,1.85,1.19,3.09,1.19c1.4,0,2.74-0.46,4.02-1.38
				c0.94-0.71,1.54-1.56,1.85-2.57c0.2-0.67,0.29-1.92,0.29-3.78V260.96z"/>
			<path class="st5" d="M412.11,275.05v-40.52h12.25l7.35,27.63l7.26-27.63h12.27v40.52h-7.6v-31.89l-8.04,31.89h-7.88l-8.02-31.89
				v31.89H412.11z"/>
			<path class="st5" d="M476.54,265.71l7.73,1.3c-0.98,2.83-2.55,4.99-4.69,6.48c-2.15,1.48-4.84,2.22-8.07,2.22
				c-5.11,0-8.88-1.66-11.33-5c-1.95-2.68-2.91-6.05-2.91-10.13c0-4.85,1.28-8.66,3.82-11.42c2.55-2.76,5.76-4.14,9.64-4.14
				c4.36,0,7.81,1.45,10.33,4.34c2.52,2.88,3.74,7.3,3.63,13.26h-19.46c0.05,2.3,0.68,4.08,1.87,5.36c1.2,1.28,2.69,1.94,4.49,1.94
				c1.22,0,2.23-0.35,3.06-1.01C475.49,268.25,476.12,267.19,476.54,265.71z M476.99,257.87c-0.05-2.26-0.63-3.96-1.74-5.13
				c-1.11-1.18-2.44-1.75-4.04-1.75c-1.7,0-3.1,0.62-4.2,1.85c-1.1,1.24-1.65,2.92-1.63,5.04H476.99z"/>
			<path class="st5" d="M498.86,245.69v28.44c0,3.75-0.24,6.38-0.72,7.92c-0.5,1.54-1.44,2.75-2.83,3.61
				c-1.39,0.87-3.17,1.3-5.33,1.3c-0.77,0-1.61-0.08-2.5-0.21c-0.9-0.14-1.86-0.34-2.89-0.62l1.36-6.64
				c0.36,0.07,0.71,0.14,1.03,0.18c0.33,0.04,0.62,0.07,0.9,0.07c0.79,0,1.44-0.17,1.95-0.51c0.51-0.35,0.84-0.75,1.01-1.23
				c0.17-0.48,0.25-1.93,0.25-4.32v-28H498.86z M491.09,241.72v-7.18h7.76v7.18H491.09z"/>
			<path class="st5" d="M505.41,259.97c0-2.59,0.63-5.09,1.91-7.5c1.26-2.42,3.07-4.26,5.4-5.53c2.34-1.27,4.95-1.91,7.82-1.91
				c4.44,0,8.08,1.45,10.93,4.34c2.82,2.88,4.25,6.53,4.25,10.93c0,4.45-1.44,8.12-4.3,11.04c-2.88,2.92-6.49,4.38-10.82,4.38
				c-2.7,0-5.27-0.61-7.7-1.81c-2.45-1.24-4.31-3.01-5.58-5.37C506.04,266.19,505.41,263.33,505.41,259.97z M513.38,260.38
				c0,2.91,0.68,5.13,2.07,6.68c1.38,1.55,3.09,2.33,5.11,2.33c2.03,0,3.73-0.77,5.1-2.33c1.38-1.56,2.07-3.8,2.07-6.75
				c0-2.87-0.69-5.07-2.07-6.62c-1.36-1.55-3.07-2.33-5.1-2.33c-2.01,0-3.73,0.78-5.11,2.33
				C514.06,255.24,513.38,257.46,513.38,260.38z"/>
			<path class="st5" d="M549.46,275.05h-7.78v-29.36h7.22v4.18c1.24-1.96,2.35-3.27,3.33-3.9c0.99-0.63,2.1-0.95,3.36-0.95
				c1.77,0,3.47,0.49,5.12,1.47l-2.4,6.77c-1.31-0.84-2.52-1.26-3.65-1.26c-1.08,0-2.01,0.29-2.77,0.89
				c-0.75,0.6-1.35,1.67-1.8,3.25c-0.41,1.56-0.63,4.84-0.63,9.83V275.05z"/>
			<path class="st5" d="M580.29,275.05v-40.52h13.13c4.97,0,8.22,0.2,9.73,0.61c2.32,0.6,4.27,1.92,5.83,3.96
				c1.56,2.05,2.35,4.68,2.35,7.89c0,2.49-0.45,4.58-1.37,6.27c-0.9,1.7-2.04,3.03-3.43,4c-1.4,0.96-2.81,1.6-4.25,1.92
				c-1.95,0.39-4.78,0.59-8.49,0.59h-5.33v15.28H580.29z M588.47,241.4v11.48h4.48c3.21,0,5.38-0.21,6.46-0.63
				c1.09-0.43,1.94-1.09,2.56-2c0.62-0.88,0.93-1.94,0.93-3.14c0-1.47-0.43-2.69-1.3-3.65c-0.86-0.95-1.96-1.55-3.29-1.79
				c-0.98-0.19-2.93-0.26-5.88-0.26H588.47z"/>
			<path class="st5" d="M618.21,241.72v-7.18h7.77v7.18H618.21z M618.21,275.05v-29.36h7.77v29.36H618.21z"/>
			<path class="st5" d="M660.88,275.05h-7.78v-14.99c0-3.17-0.16-5.21-0.49-6.14c-0.32-0.93-0.87-1.65-1.62-2.17
				c-0.74-0.52-1.65-0.77-2.7-0.77c-1.34,0-2.55,0.38-3.61,1.11c-1.07,0.74-1.81,1.72-2.2,2.92c-0.39,1.22-0.59,3.47-0.59,6.75v13.3
				h-7.77v-29.36h7.21v4.32c2.56-3.31,5.79-4.99,9.67-4.99c1.71,0,3.28,0.31,4.7,0.93c1.42,0.62,2.5,1.41,3.23,2.37
				c0.72,0.96,1.23,2.04,1.51,3.25c0.28,1.23,0.44,2.96,0.44,5.23V275.05z"/>
			<path class="st5" d="M682.43,245.69v6.2h-5.3v11.83c0,2.4,0.05,3.79,0.14,4.19c0.1,0.4,0.34,0.73,0.7,0.99
				c0.36,0.26,0.79,0.39,1.31,0.39c0.72,0,1.76-0.26,3.13-0.76l0.66,6.02c-1.8,0.78-3.84,1.17-6.13,1.17c-1.4,0-2.67-0.25-3.79-0.71
				c-1.12-0.47-1.95-1.07-2.47-1.83c-0.52-0.73-0.89-1.74-1.09-3.02c-0.17-0.9-0.25-2.73-0.25-5.48v-12.79h-3.57v-6.2h3.57v-5.83
				l7.8-4.53v10.36H682.43z"/>
			<path class="st5" d="M707.38,275.05v-4.39c-1.08,1.56-2.47,2.81-4.22,3.7c-1.73,0.91-3.57,1.36-5.5,1.36
				c-1.98,0-3.75-0.44-5.31-1.3c-1.58-0.86-2.7-2.08-3.4-3.64c-0.71-1.56-1.06-3.73-1.06-6.5v-18.58h7.77v13.49
				c0,4.13,0.15,6.66,0.42,7.6c0.3,0.93,0.82,1.66,1.58,2.21c0.75,0.53,1.71,0.81,2.86,0.81c1.33,0,2.52-0.36,3.56-1.09
				c1.05-0.72,1.77-1.64,2.16-2.71c0.38-1.08,0.57-3.72,0.57-7.92v-12.38h7.77v29.36H707.38z"/>
			<path class="st5" d="M730.28,275.05h-7.76v-29.36h7.21v4.18c1.24-1.96,2.35-3.27,3.33-3.9c0.99-0.63,2.11-0.95,3.36-0.95
				c1.77,0,3.48,0.49,5.12,1.47l-2.41,6.77c-1.31-0.84-2.52-1.26-3.65-1.26c-1.09,0-2.01,0.29-2.76,0.89
				c-0.76,0.6-1.36,1.67-1.79,3.25c-0.44,1.56-0.66,4.84-0.66,9.83V275.05z"/>
			<path class="st5" d="M750.91,254.66l-7.04-1.28c0.79-2.84,2.14-4.94,4.08-6.29c1.93-1.38,4.81-2.06,8.63-2.06
				c3.45,0,6.04,0.42,7.74,1.23c1.7,0.83,2.88,1.86,3.56,3.13c0.7,1.25,1.05,3.57,1.05,6.94l-0.08,9.07c0,2.58,0.12,4.48,0.38,5.71
				c0.25,1.22,0.7,2.53,1.38,3.93h-7.67c-0.2-0.52-0.45-1.28-0.75-2.29c-0.13-0.45-0.21-0.77-0.28-0.92
				c-1.33,1.3-2.74,2.26-4.26,2.9c-1.51,0.65-3.11,0.97-4.83,0.97c-3.02,0-5.4-0.82-7.15-2.46c-1.74-1.64-2.62-3.71-2.62-6.22
				c0-1.67,0.4-3.14,1.2-4.45c0.79-1.29,1.9-2.29,3.32-2.98c1.43-0.7,3.49-1.3,6.19-1.81c3.62-0.68,6.14-1.32,7.54-1.9v-0.77
				c0-1.51-0.37-2.57-1.1-3.21c-0.74-0.63-2.13-0.95-4.17-0.95c-1.4,0-2.47,0.27-3.24,0.82
				C752.02,252.34,751.4,253.29,750.91,254.66z M761.31,260.96c-1,0.34-2.57,0.73-4.73,1.18c-2.16,0.46-3.57,0.93-4.23,1.36
				c-1.01,0.72-1.51,1.62-1.51,2.74c0,1.08,0.4,2.02,1.21,2.82c0.82,0.79,1.85,1.19,3.1,1.19c1.39,0,2.74-0.46,4.01-1.38
				c0.95-0.71,1.55-1.56,1.86-2.57c0.2-0.67,0.3-1.92,0.3-3.78V260.96z"/>
		</g>
	</g>
</g>
</svg>
